<?xml version="1.0" encoding="utf-8"?>
<!-- Generator: Adobe Illustrator 25.1.0, SVG Export Plug-In . SVG Version: 6.00 Build 0)  -->
<svg version="1.1" id="Layer_1" xmlns="http://www.w3.org/2000/svg" xmlns:xlink="http://www.w3.org/1999/xlink" x="0px" y="0px"
	 viewBox="0 0 195.9 30" style="enable-background:new 0 0 195.9 30;" xml:space="preserve">
<style type="text/css">
	.st0{clip-path:url(#SVGID_2_);}
</style>
<g>
	<defs>
		<rect id="SVGID_1_" x="13.9" width="182" height="30"/>
	</defs>
	<clipPath id="SVGID_2_">
		<use xlink:href="#SVGID_1_"  style="overflow:visible;"/>
	</clipPath>
	<g class="st0">
		<path d="M175.3,16.6c0,3.8,0,7.6,0,11.4c0,1-0.4,1.5-1.4,1.5c-0.8,0-1.7,0-2.5,0c-0.6,0-1.1-0.3-1.3-0.8c-0.3-0.6-0.5-0.6-1-0.2
			c-1.1,0.9-2.4,1.4-3.8,1.6c-1.6,0.2-3.1-0.1-4.5-0.9c-1.2-0.6-2.1-1.6-2.8-2.7c-0.8-1.3-1.3-2.7-1.5-4.3c-0.1-1-0.2-1.9-0.2-2.9
			c0.1-1.6,0.4-3.2,1.1-4.7c0.4-1,1-1.9,1.7-2.6c1.1-1.2,2.5-1.9,4.1-2.1c1.8-0.3,3.5-0.1,5.1,0.8c0.3,0.2,0.6,0.4,0.9,0.5
			c0.3,0.2,0.5,0,0.6-0.3c0-0.3,0.1-0.5,0.1-0.8c0-1.6,0-3.2,0-4.8c0-1,0.5-1.5,1.5-1.5c0.9,0,1.8,0,2.7,0c0.9,0,1.3,0.5,1.4,1.4
			C175.3,8.9,175.3,12.7,175.3,16.6z M169.9,19.8c-0.1-0.7-0.1-1.4-0.3-2.1c-0.2-0.9-0.5-1.7-1.1-2.3c-0.6-0.7-1.4-1.1-2.3-1.2
			c-0.8-0.1-1.5,0-2.1,0.4c-0.9,0.5-1.5,1.4-1.8,2.4c-0.4,1.2-0.5,2.4-0.4,3.7c0.1,1,0.3,2,0.8,2.9c0.7,1.4,2.4,2.3,3.9,2
			c1.2-0.2,2.1-0.9,2.6-2C169.7,22.3,169.9,21.1,169.9,19.8z"/>
		<path d="M94.4,21.2c-1.7,0-3.3,0-5,0c-0.2,0-0.5,0-0.7,0.1c-0.3,0.1-0.6,0.4-0.5,0.8c0.2,0.9,0.5,1.8,1.2,2.5
			c0.6,0.6,1.3,0.9,2.2,0.9c0.8,0.1,1.6,0,2.3-0.6c0.4-0.3,0.7-0.7,0.9-1.1c0.4-0.8,1-1.1,1.9-1.1c0.8,0,1.6,0,2.4,0
			c0.2,0,0.5,0,0.7,0.1c0.7,0.3,0.8,0.6,0.6,1.4c-0.2,1-0.8,1.8-1.4,2.6c-1.1,1.4-2.4,2.3-4,2.7c-0.7,0.2-1.4,0.3-2.1,0.4
			c-0.5,0.1-1,0.1-1.5,0.1c-2.1-0.1-4-0.7-5.6-2.1c-1.4-1.2-2.3-2.7-2.8-4.5c-0.4-1.6-0.5-3.1-0.4-4.7c0.1-2.1,0.8-4,2-5.7
			c1-1.3,2.2-2.2,3.7-2.7c1.4-0.5,2.9-0.7,4.4-0.6c1.9,0.1,3.6,0.7,5.1,2c1.1,0.9,1.9,2.1,2.4,3.5c0.4,1,0.6,2.1,0.7,3.2
			c0,0.5,0.1,1.1,0.1,1.6c0,0.7-0.7,1.2-1.4,1.2C97.8,21.2,96.1,21.2,94.4,21.2z M91.7,17.3c0.8,0,1.6,0,2.4,0c0.6,0,1-0.3,0.8-0.9
			c-0.2-0.7-0.5-1.3-1.1-1.7c-0.7-0.5-1.5-0.7-2.4-0.6c-1.3,0.1-2.4,1.1-2.8,2.3c-0.1,0.4,0,0.7,0.3,0.8c0.2,0.1,0.3,0.1,0.5,0.1
			C90.1,17.3,90.9,17.3,91.7,17.3z"/>
		<path d="M149,21.2c-1.7,0-3.3,0-5,0c-0.3,0-0.5,0-0.8,0.1c-0.3,0.1-0.6,0.4-0.5,0.8c0.2,1.2,0.7,2.3,1.8,2.9
			c0.4,0.2,0.9,0.4,1.3,0.5c0.6,0.1,1.1,0.1,1.7-0.1c0.8-0.3,1.5-0.8,1.9-1.6c0.4-0.8,1-1.1,1.8-1.1c0.8,0,1.6,0,2.4,0
			c0.2,0,0.4,0,0.7,0.1c0.8,0.2,0.9,0.7,0.7,1.3c-0.2,1-0.8,1.9-1.4,2.7c-0.8,1-1.8,1.8-3,2.4c-0.8,0.4-1.7,0.7-2.6,0.7
			c-0.7,0.1-1.5,0.2-2.2,0.1c-2-0.1-3.9-0.7-5.5-2c-1.6-1.3-2.5-3-3-5c-0.2-0.8-0.3-1.7-0.3-2.5c-0.2-1.8,0.1-3.5,0.8-5.2
			c0.3-0.9,0.8-1.7,1.4-2.5c0.8-1,1.7-1.7,2.8-2.3c1-0.5,2.1-0.8,3.2-0.9c0.6,0,1.1-0.1,1.7-0.1c1.9,0.1,3.7,0.6,5.3,1.9
			c1.2,1,2,2.3,2.6,3.8c0.4,1,0.6,2,0.7,3.1c0,0.5,0.1,1,0.1,1.5c0,0.8-0.6,1.3-1.4,1.3C152.5,21.2,150.7,21.2,149,21.2z
			 M146.3,17.3c0.8,0,1.6,0,2.4,0c0.7,0,0.9-0.3,0.8-0.8c-0.1-0.5-0.4-1-0.8-1.4c-0.9-0.9-1.9-1.1-3.1-0.9c-1.2,0.2-2,1-2.5,2.2
			c-0.2,0.5,0,0.8,0.4,0.9c0.1,0,0.3,0.1,0.5,0.1C144.8,17.3,145.5,17.3,146.3,17.3z"/>
		<path d="M33,19.8c0-2,0.4-3.8,1.3-5.5c1-1.8,2.4-3.2,4.4-3.9c0.9-0.4,1.8-0.6,2.8-0.7c0.6,0,1.2-0.1,1.9-0.1
			c1.2,0.1,2.3,0.3,3.4,0.8c1,0.5,2,1.1,2.7,1.9c1,1,1.7,2.3,2.2,3.7c0.3,0.9,0.4,1.8,0.5,2.8c0.2,1.8-0.1,3.6-0.7,5.2
			c-0.6,1.5-1.5,2.8-2.7,3.9c-1.3,1.1-2.7,1.7-4.3,1.9C43.7,30,42.8,30,42,30c-1.4-0.1-2.8-0.4-4.1-1.1c-2-1.1-3.4-2.7-4.2-4.8
			c-0.4-1-0.6-2-0.7-3C33.1,20.6,33.1,20.2,33,19.8z M46.7,19.8c0-0.4-0.1-0.8-0.1-1.2c-0.1-0.9-0.3-1.7-0.7-2.6
			c-0.8-1.6-2.5-2.2-4.1-1.9c-1.4,0.3-2.3,1.3-2.7,2.6c-0.4,1.2-0.5,2.5-0.4,3.8c0.1,0.9,0.2,1.8,0.6,2.7c0.4,0.8,0.9,1.4,1.6,1.8
			c0.7,0.4,1.4,0.4,2.1,0.4c1.3-0.1,2.2-0.7,2.9-1.8C46.5,22.4,46.7,21.1,46.7,19.8z"/>
		<path d="M117.2,17.7c-0.6,0-1.1-0.1-1.7-0.1c-0.7,0-1-0.5-1.2-1c-0.2-0.5-0.4-1-0.8-1.4c-0.5-0.6-1.2-0.9-2-1
			c-0.9-0.1-1.7,0.1-2.4,0.6c-0.8,0.6-1.2,1.4-1.5,2.4c-0.3,1-0.4,2-0.3,3.1c0,1.1,0.2,2.3,0.7,3.3c0.6,1.2,1.6,2,3,2
			c0.7,0,1.3-0.1,1.9-0.4c0.7-0.4,1.1-1.2,1.4-1.9c0.3-0.8,0.7-1.1,1.6-1.1c0.9,0,1.7,0,2.6,0c1.2,0,1.6,0.7,1.3,1.8
			c-0.5,1.6-1.3,3.1-2.6,4.2c-1,0.9-2.2,1.5-3.6,1.8c-1,0.2-2.1,0.3-3.2,0.3c-1.3-0.1-2.6-0.4-3.8-1c-2-1.1-3.4-2.7-4.2-4.8
			c-0.4-1.1-0.6-2.3-0.7-3.5c-0.2-2.4,0.3-4.6,1.4-6.6c1.1-2,2.9-3.4,5.1-4c1.2-0.4,2.5-0.5,3.8-0.4c1.7,0.1,3.3,0.6,4.7,1.6
			c0.9,0.7,1.6,1.5,2.2,2.5c0.5,0.8,0.8,1.6,0.9,2.4c0.2,1-0.4,1.4-1.2,1.5C118.1,17.7,117.6,17.6,117.2,17.7
			C117.2,17.6,117.2,17.7,117.2,17.7z"/>
		<path d="M29.5,17.6c-0.4,0-0.8,0-1.2,0c-1.2,0-1.5-0.4-1.8-1.3c-0.3-0.9-0.8-1.6-1.7-1.9c-1.5-0.7-3.6-0.2-4.5,1.5
			c-0.4,0.8-0.6,1.6-0.7,2.5c0,0.5-0.1,1-0.1,1.4c0.1,1.5,0.1,3,1,4.3c0.6,0.9,1.5,1.4,2.6,1.5c0.6,0,1.2,0,1.7-0.3
			c0.8-0.4,1.3-1.1,1.7-1.9c0.2-0.4,0.3-0.9,0.7-1.1c0.3-0.1,0.5-0.2,0.8-0.2c0.9,0,1.9,0,2.8,0c0.9,0,1.4,0.5,1.2,1.6
			c-0.3,1.4-1,2.6-1.9,3.7c-1.2,1.4-2.8,2.2-4.5,2.5c-0.9,0.2-1.9,0.2-2.8,0.2c-1.2,0-2.4-0.3-3.6-0.9c-1-0.5-1.9-1.1-2.6-1.9
			c-1-1.1-1.7-2.4-2.1-3.9C14,22,13.9,20.6,14,19.2c0.1-1.4,0.3-2.8,0.9-4.1c0.5-1.1,1.1-2.1,1.9-2.9c1.2-1.2,2.6-2,4.2-2.4
			c1.1-0.3,2.2-0.3,3.3-0.3c1.6,0.1,3.2,0.5,4.5,1.4c1,0.7,1.8,1.5,2.4,2.6c0.4,0.8,0.8,1.6,1,2.4c0.2,1-0.3,1.5-1.2,1.5
			C30.4,17.7,29.9,17.6,29.5,17.6z"/>
		<path d="M125.6,21.8c0-2,0-3.9,0-5.9c0-1.1-0.4-1.1-1.1-1.2c-1.1,0-2.2,0-3.3,0c-0.6,0-1.1-0.4-1.2-0.9c0-0.1,0-0.2,0-0.3
			c0-0.7,0-1.4,0-2.1c0-0.8,0.5-1.3,1.3-1.3c2.9,0,5.8-0.1,8.7-0.1c1.9,0,3.9,0,5.8,0.1c0.8,0,1.2,0.4,1.2,1.3c0,0.6,0,1.3,0,1.9
			c0,1-0.5,1.4-1.4,1.4c-1,0-2,0-2.9,0c-0.3,0-0.5,0-0.8,0.1c-0.3,0-0.5,0.4-0.6,0.7c0,0.1,0,0.2,0,0.3c0,3.9,0,7.8,0,11.8
			c0,0.3-0.1,0.6-0.1,1c-0.1,0.6-0.6,0.9-1.2,0.9c-1,0-2,0-3,0c-0.7,0-1.2-0.4-1.2-1.1c0-0.6-0.1-1.2-0.1-1.8
			C125.6,25,125.6,23.4,125.6,21.8z"/>
		<path d="M75.7,29.4c-2,0-4,0-5.9,0c-0.7,0-1.2-0.4-1.4-1c-0.1-0.3-0.1-0.5-0.1-0.8c0-5.2,0-10.5,0.1-15.7c0-0.5,0-1,0.4-1.4
			c0.2-0.2,0.5-0.3,0.8-0.3c1,0,2.1-0.1,3.1,0c0.7,0,1.1,0.4,1.2,1.1c0.1,0.5,0.1,1,0.1,1.5c0,3.7,0,7.4,0,11.1
			c0,0.6,0.3,0.9,0.8,0.9c2.3,0,4.5,0,6.8,0.1c0.5,0,1,0.2,1.2,0.7c0.1,0.2,0.1,0.4,0.1,0.6c0,0.6,0,1.2,0,1.7c0,1-0.4,1.5-1.5,1.5
			C79.5,29.4,77.6,29.4,75.7,29.4z"/>
		<path d="M53.2,19.8c0-2.7,0-5.4,0-8.1c0-0.3,0.1-0.6,0.2-0.8c0.2-0.5,0.6-0.7,1.1-0.7c1,0,2.1,0,3.1,0c0.7,0,1.2,0.5,1.2,1.2
			c0,4.2,0.1,8.3,0.1,12.5c0,0.5,0.3,0.9,0.8,0.9c1.5,0,3.1,0,4.6,0.1c0.7,0,1.4,0,2.1,0c0.8,0,1.4,0.5,1.4,1.3c0,0.7,0,1.4,0,2
			c0,0.8-0.6,1.3-1.4,1.3c-3.9,0-7.8,0-11.7,0c-1.1,0-1.4-0.5-1.4-1.5C53.1,25.2,53.2,22.5,53.2,19.8z"/>
		<path d="M188.2,20.2c0,1.1,0,2.2,0,3.3c0,0.3-0.1,0.6-0.2,0.9c-0.1,0.3-0.4,0.4-0.7,0.4c-0.3,0-0.6-0.2-0.7-0.5
			c-0.1-0.2-0.1-0.5-0.1-0.8c0-2.1,0-4.1,0-6.2c0-0.3,0-0.6-0.1-0.9c0-0.2-0.1-0.3-0.2-0.4c-0.1,0-0.3,0.1-0.4,0.2
			c-0.3,0.4-0.6,0.8-0.9,1.2c-0.9,1.2-1.7,2.3-2.6,3.5c-0.4,0.5-1.1,0.4-1.2-0.2c-0.1-0.3,0-0.7,0.1-0.9c0.3-0.6,0.7-1.1,1.1-1.6
			c0.7-1,1.5-2.1,2.2-3.1c0.2-0.3,0.4-0.7,0.6-1c0.1-0.3,0-0.5-0.3-0.6c-0.2,0-0.4-0.1-0.6-0.1c-1.4,0-2.8,0-4.2,0
			c-0.3,0-0.6-0.1-0.8-0.1c-0.3-0.1-0.5-0.4-0.5-0.7c0-0.3,0.1-0.6,0.5-0.7c0.4-0.1,0.7-0.2,1.1-0.2c1.4,0,2.7,0,4.1,0
			c0.1,0,0.1,0,0.2,0c0.2-0.1,0.5-0.1,0.6-0.3c0.1-0.1,0-0.4-0.1-0.6c-0.3-0.5-0.6-0.9-1-1.4c-0.9-1.3-1.8-2.6-2.7-3.9
			c-0.1-0.2-0.2-0.4-0.3-0.6c-0.1-0.4,0.1-0.7,0.3-0.9c0.4-0.2,0.8-0.1,1,0.2c0.3,0.4,0.6,0.8,0.9,1.2c0.8,1.1,1.7,2.3,2.5,3.4
			c0.1,0.1,0.3,0.2,0.4,0.2c0.1-0.1,0.2-0.3,0.2-0.4c0-0.8,0.1-1.6,0.1-2.5c0-1.6,0-3.1,0-4.7c0-0.2,0.1-0.5,0.1-0.7
			c0.2-0.4,0.4-0.5,0.8-0.5c0.4,0,0.5,0.3,0.6,0.6c0.1,0.2,0.1,0.5,0.1,0.7c0,2.1,0,4.2,0,6.3c0,0.3,0,0.6,0.1,0.9
			c0,0.1,0.1,0.3,0.2,0.3c0.1,0,0.3,0,0.3-0.1c0.4-0.6,0.9-1.1,1.3-1.7c0.7-1,1.4-2,2.2-2.9c0.1-0.2,0.5-0.3,0.7-0.3
			c0.7,0,0.8,0.8,0.5,1.4c-0.6,1-1.3,1.9-2,2.9c-0.6,0.9-1.2,1.7-1.8,2.6c-0.4,0.6-0.1,0.9,0.5,0.9c0.7,0,1.4,0,2.1,0
			c0.7,0,1.4,0,2.1,0c0.3,0,0.6,0.1,0.8,0.1c0.4,0.1,0.7,0.5,0.7,0.8c0,0.4-0.3,0.7-0.7,0.8c-0.2,0-0.5,0.1-0.8,0.1
			c-1.4,0-2.7,0-4.1,0c-0.1,0-0.2,0-0.2,0c-0.6,0.1-0.7,0.4-0.4,0.9c0.7,1.1,1.5,2.2,2.3,3.3c0.5,0.8,1.1,1.5,1.5,2.3
			c0.2,0.3,0.3,0.7,0,1c-0.4,0.5-1,0.4-1.4-0.2c-0.9-1.3-1.9-2.6-2.8-3.9c-0.2-0.2-0.3-0.4-0.5-0.6c-0.3-0.3-0.5-0.2-0.6,0.2
			c0,0.2-0.1,0.5-0.1,0.7C188.2,18.1,188.2,19.1,188.2,20.2z"/>
	</g>
</g>
</svg>
